<svg width="48" height="61" viewBox="0 0 48 61" fill="none" xmlns="http://www.w3.org/2000/svg">
<path d="M34.4091 8.87223V9.30473L34.8371 9.36702C38.3511 9.87844 41.5635 11.6345 43.8882 14.3146C46.2128 16.9946 47.4947 20.4198 47.5 23.965V56.6429C47.5 57.6656 47.0931 58.6466 46.3686 59.37C45.6441 60.0934 44.6613 60.5 43.6364 60.5H4.36364C3.3387 60.5 2.35588 60.0934 1.63137 59.37C0.906879 58.6466 0.5 57.6656 0.5 56.6429V23.9647C0.505377 20.4196 1.78724 16.9945 4.11181 14.3146C6.43648 11.6345 9.64895 9.87844 13.1629 9.36702L13.5909 9.30473V8.87223V6.53571C13.5909 4.93518 14.2277 3.40006 15.3613 2.26808C16.495 1.13608 18.0328 0.5 19.6364 0.5H28.3636C29.9672 0.5 31.505 1.13608 32.6387 2.26808C33.7723 3.40006 34.4091 4.93518 34.4091 6.53571V8.87223ZM30.5455 9.21429H31.0455V8.71429V6.53571C31.0455 5.82507 30.7627 5.14369 30.2597 4.64142C29.7567 4.13917 29.0747 3.85714 28.3636 3.85714H19.6364C18.9253 3.85714 18.2433 4.13917 17.7403 4.64142C17.2373 5.14369 16.9545 5.82507 16.9545 6.53571V8.71429V9.21429H17.4545H30.5455ZM37.0909 57.1429H37.5909V56.6429V45.75V45.25H37.0909H30.5455H30.0455V45.75V47.9286C30.0455 48.3735 29.8684 48.8004 29.5531 49.1152C29.2378 49.4301 28.8099 49.6071 28.3636 49.6071C27.9174 49.6071 27.4895 49.4301 27.1741 49.1152C26.8588 48.8004 26.6818 48.3735 26.6818 47.9286V45.75V45.25H26.1818H10.9091H10.4091V45.75V56.6429V57.1429H10.9091H37.0909ZM37.0909 41.8929H37.5909V41.3929V39.2143C37.5909 37.9258 37.0783 36.6903 36.1661 35.7795C35.254 34.8687 34.017 34.3571 32.7273 34.3571H15.2727C13.9831 34.3571 12.746 34.8687 11.8339 35.7795C10.9217 36.6903 10.4091 37.9259 10.4091 39.2143V41.3929V41.8929H10.9091H37.0909ZM28.3636 16.9286H19.6364C18.9253 16.9286 18.2433 17.2106 17.7403 17.7128C17.2373 18.2151 16.9545 18.8965 16.9545 19.6071C16.9545 20.3178 17.2373 20.9992 17.7403 21.5014C18.2433 22.0037 18.9253 22.2857 19.6364 22.2857H28.3636C29.0747 22.2857 29.7567 22.0037 30.2597 21.5014C30.7627 20.9992 31.0455 20.3178 31.0455 19.6071C31.0455 18.8965 30.7627 18.2151 30.2597 17.7128C29.7567 17.2106 29.0747 16.9286 28.3636 16.9286Z" fill="#303030" stroke="#303030"/>
</svg>
