<svg width="74" height="40" viewBox="0 0 74 40" fill="none" xmlns="http://www.w3.org/2000/svg">
<path d="M22.7011 38.8891C20.5947 38.3843 18.9927 36.4264 18.9927 34.1013C18.9927 33.1951 19.2334 32.3457 19.654 31.6157C19.9935 31.0265 20.0709 30.2773 19.6224 29.7661V29.7661C19.2032 29.2884 18.4988 29.2299 17.8915 29.4176C17.4646 29.5496 17.0116 29.6194 16.5451 29.6194C13.9344 29.6194 11.7836 27.4014 11.7836 24.7092V24.7092C11.7836 24.2749 11.5965 23.8411 11.2283 23.6105C11.1015 23.5311 10.9753 23.4514 10.8496 23.3712C10.1843 22.9469 9.32367 23.0463 8.6159 23.3952C7.99719 23.7002 7.30336 23.8679 6.577 23.8679C3.96629 23.8679 1.81543 21.6499 1.81543 18.9578C1.81543 18.1483 2.00768 17.3807 2.34972 16.7046C2.97126 15.476 3.58197 14.2282 3.59803 12.8515V12.8515C3.61284 11.5817 3.13237 10.2415 2.58929 9.09363C2.2841 8.44856 2.1121 7.72624 2.1121 6.9653C2.1121 4.26853 4.26297 2.05206 6.87367 2.05206C7.14584 2.05206 7.41304 2.07592 7.67333 2.12171C9.6199 2.46421 11.6141 3.29412 13.5855 3.15317V3.15317C15.3886 3.02426 17.1164 2.03575 18.8095 1.40246C19.3129 1.21417 19.8546 1.11133 20.4167 1.11133C23.0274 1.11133 25.1783 3.32779 25.1783 6.02457V6.02457C25.1783 6.1597 25.2541 6.28346 25.3749 6.34407C25.807 6.56092 26.2456 6.77305 26.6907 6.98022C27.8508 7.52023 29.1893 7.02937 30.3121 6.41537C30.9748 6.05291 31.7287 5.84713 32.5209 5.84713C34.5046 5.84713 36.2135 7.10848 36.9282 8.8879C37.3064 9.82937 37.9239 10.71 38.9246 10.8777V10.8777C39.9736 11.0534 40.9933 10.3731 41.6573 9.54218C42.5324 8.44728 43.8551 7.74542 45.3371 7.74542C46.9766 7.74542 48.4372 8.62108 49.2954 9.94257C49.6262 10.452 50.2202 10.7916 50.8073 10.6358V10.6358C51.4243 10.4721 51.7422 9.83977 51.731 9.2015C51.7305 9.17659 51.7303 9.15166 51.7303 9.1267C51.7303 6.42992 53.8812 4.21193 56.5067 4.21193V4.21193C59.1748 4.21193 62.2334 5.56949 64.6514 6.69723C64.7886 6.76118 64.9244 6.82932 65.0586 6.90156C67.0157 7.95507 69.2578 9.09514 70.7981 10.6974C71.6544 11.5881 72.1858 12.8122 72.1858 14.1547C72.1858 16.8468 70.0349 19.0648 67.4242 19.0648V19.0648C66.594 19.0648 65.7289 19.3131 65.1615 19.9191C65.0637 20.0236 64.9639 20.1276 64.8625 20.2307C64.0542 21.0538 63.8402 22.2897 63.8893 23.4423C63.8923 23.5126 63.8938 23.5831 63.8938 23.6538C63.8938 26.3613 61.743 28.5793 59.1323 28.5793C58.376 28.5793 57.6565 28.3891 57.0171 28.0554C56.0018 27.5255 54.792 27.1933 53.7393 27.6443C53.2336 27.861 52.7309 28.0638 52.2311 28.2512C52.1709 28.2738 52.1308 28.3313 52.1308 28.3957V28.3957C52.1308 31.1032 49.9948 33.3212 47.3693 33.3212C46.349 33.3212 45.3958 32.9808 44.6163 32.4028C43.7492 31.7598 42.6544 31.2848 41.6398 31.6535C41.2082 31.8103 40.7832 31.9728 40.3647 32.1435C40.1463 32.2325 40.0118 32.4582 40.0118 32.694V32.694C40.0118 35.3862 37.861 37.6042 35.2502 37.6042C34.9244 37.6042 34.6056 37.5714 34.299 37.5075C33.6702 37.3766 33.1336 36.9949 32.6453 36.5777L32.0451 36.0649C31.5538 35.645 31.0933 35.1711 30.8509 34.572C30.7889 34.4188 30.7344 34.2618 30.6877 34.1013M28.5158 34.1013C28.5158 35.7866 27.6786 37.2811 26.4143 38.1702C25.824 38.5853 25.0938 38.7178 24.3741 38.772L22.8197 38.8891M28.5158 34.1013C28.5158 32.6643 27.903 31.3623 26.9345 30.4607M28.5158 34.1013H30.6877M26.9345 30.4607C26.9345 30.4607 24.9714 29.1911 23.7542 29.1911V29.1911C23.1835 29.1911 22.6126 28.9758 22.2582 28.5285C22.1431 28.3833 22.026 28.2407 21.9071 28.1005C21.279 27.3604 21.1398 26.3259 21.2646 25.3633C21.2924 25.1484 21.3067 24.9301 21.3067 24.7092C21.3067 22.0018 19.1558 19.7991 16.5451 19.7991C15.591 19.7991 14.7007 20.0918 13.9528 20.5962C13.3757 20.9855 12.5984 21.1033 12.0146 20.7241V20.7241C11.5105 20.3967 11.3099 19.7905 11.334 19.1899C11.3371 19.1134 11.3386 19.0361 11.3386 18.9578C11.3386 16.2656 9.1877 14.0476 6.577 14.0476V14.0476C6.45622 14.0476 6.34056 13.9612 6.32939 13.8409C6.28485 13.3616 6.29873 12.8518 6.3658 12.2969C6.39583 12.0484 6.62335 11.8785 6.87367 11.8785V11.8785C9.49921 11.8785 11.6501 9.66207 11.6501 6.9653V6.9653C11.6501 6.60941 11.8694 6.27323 12.219 6.20641C13.3631 5.98772 14.5139 5.93128 15.6261 5.99235C15.6424 5.99325 15.6551 6.00673 15.6551 6.02304V6.02304C15.6551 8.71981 17.806 10.9378 20.4167 10.9378C21.2127 10.9378 21.9662 10.7332 22.6294 10.3722C23.7279 9.77442 25.0621 9.36854 26.2018 9.88354C26.6565 10.089 27.1164 10.2894 27.5788 10.4842C27.688 10.5303 27.7593 10.6372 27.7593 10.7558V10.7558C27.7593 13.4526 29.9102 15.669 32.5209 15.669C33.4694 15.669 34.3537 15.3805 35.0973 14.8838C36.174 14.1644 37.474 13.5207 38.7494 13.7444V13.7444C39.9929 13.9624 40.9185 14.8948 41.7312 15.8608C42.6079 16.903 43.8971 17.5658 45.3371 17.5658C46.9491 17.5658 48.3844 16.718 49.2449 15.433C49.8652 14.5066 50.685 13.6335 51.7589 13.3338V13.3338C52.7627 13.0537 53.8242 13.3204 54.7902 13.7115C55.3235 13.9274 55.9019 14.0476 56.5067 14.0476C59.1174 14.0476 61.2683 11.8219 61.2683 9.12517V9.12517C61.2683 8.97166 61.3814 8.84044 61.5344 8.82742C62.0389 8.78445 62.5111 8.82492 62.9434 8.93327C64.0803 9.21825 63.9108 10.6475 63.3214 11.6606C62.8954 12.3929 62.6478 13.2458 62.6478 14.1547C62.6478 14.776 62.7605 15.3641 62.9669 15.9083C63.2974 16.7796 63.3196 17.8322 62.6461 18.4763V18.4763C62.0161 19.0788 61.0775 19.0862 60.2312 18.8774C59.8773 18.7902 59.5088 18.7436 59.1323 18.7436C56.5216 18.7436 54.3707 20.9616 54.3707 23.6538V23.6538C54.3707 24.0049 54.1923 24.3358 53.8734 24.4826C53.5683 24.6231 53.2634 24.7587 52.9591 24.8897C51.9699 25.3156 50.8564 24.8915 49.9653 24.2868C49.218 23.7797 48.3253 23.4855 47.3693 23.4855C45.4036 23.4855 43.696 24.7453 42.9739 26.5218C42.5591 27.5421 41.9028 28.5313 40.8718 28.919V28.919C39.7675 29.3344 38.5265 28.9459 37.4957 28.3717C36.8242 27.9977 36.0584 27.7838 35.2502 27.7838C33.6171 27.7838 32.1638 28.6459 31.3045 29.9542M26.9345 30.4607C28.8674 31.0249 29.8664 31.0908 31.3045 29.9542M31.3045 29.9542C30.7902 30.7373 30.4887 31.6803 30.4887 32.694C30.4887 33.1814 30.5578 33.6545 30.6877 34.1013M20.4167 3.96719C21.5292 3.96719 22.4044 4.87121 22.4044 6.02304C22.4044 7.17486 21.5292 8.07889 20.4167 8.07889C19.3042 8.07889 18.4142 7.17486 18.4142 6.02304C18.4142 4.87121 19.3042 3.96719 20.4167 3.96719ZM6.87367 4.90945C8.00102 4.90945 8.8762 5.81347 8.8762 6.9653C8.8762 8.11713 8.00102 9.01962 6.87367 9.01962C5.76115 9.01962 4.88597 8.11713 4.88597 6.9653C4.88597 5.81347 5.76115 4.90945 6.87367 4.90945ZM56.5067 7.07085C57.6192 7.07085 58.4944 7.97334 58.4944 9.12517C58.4944 10.277 57.6192 11.181 56.5067 11.181C55.3794 11.181 54.5042 10.277 54.5042 9.12517C54.5042 7.97334 55.3794 7.07085 56.5067 7.07085ZM32.5209 8.70451C33.6482 8.70451 34.5086 9.60395 34.5086 10.7558C34.5086 11.9076 33.6482 12.8101 32.5209 12.8101C31.4084 12.8101 30.5332 11.9076 30.5332 10.7558C30.5332 9.60395 31.4084 8.70451 32.5209 8.70451ZM45.3371 10.6028C46.4496 10.6028 47.3248 11.5007 47.3248 12.6525C47.3248 13.8181 46.4496 14.7206 45.3371 14.7206C44.2097 14.7206 43.3345 13.8181 43.3345 12.6525C43.3345 11.5007 44.2097 10.6028 45.3371 10.6028ZM67.4242 12.0988C68.5367 12.0988 69.4119 13.0028 69.4119 14.1547C69.4119 15.3172 68.5367 16.2044 67.4242 16.2044C66.2969 16.2044 65.4365 15.3172 65.4365 14.1547C65.4365 13.0028 66.2969 12.0988 67.4242 12.0988ZM6.577 16.8927C7.68952 16.8927 8.57953 17.8105 8.57953 18.9578C8.57953 20.105 7.68952 21.0228 6.577 21.0228C5.46448 21.0228 4.5893 20.105 4.5893 18.9578C4.5893 17.8105 5.46448 16.8927 6.577 16.8927ZM59.1323 21.6041C60.2448 21.6041 61.1348 22.5065 61.1348 23.6538C61.1348 24.8163 60.2448 25.7188 59.1323 25.7188C58.0198 25.7188 57.1446 24.8163 57.1446 23.6538C57.1446 22.5065 58.0198 21.6041 59.1323 21.6041ZM16.5451 22.6442C17.6577 22.6442 18.5477 23.5467 18.5477 24.7092C18.5477 25.8565 17.6577 26.759 16.5451 26.759C15.4326 26.759 14.5574 25.8565 14.5574 24.7092C14.5574 23.5467 15.4326 22.6442 16.5451 22.6442ZM47.3693 26.346C48.4966 26.346 49.357 27.2485 49.357 28.3957C49.357 29.5582 48.4966 30.4607 47.3693 30.4607C46.2567 30.4607 45.3816 29.5582 45.3816 28.3957C45.3816 27.2485 46.2567 26.346 47.3693 26.346ZM35.2502 30.6443C36.3628 30.6443 37.2379 31.5315 37.2379 32.694C37.2379 33.8413 36.3628 34.7438 35.2502 34.7438C34.1377 34.7438 33.2626 33.8413 33.2626 32.694C33.2626 31.5315 34.1377 30.6443 35.2502 30.6443ZM23.7542 32.0363C24.8668 32.0363 25.7419 32.9541 25.7419 34.1013C25.7419 35.2485 24.8668 36.151 23.7542 36.151C22.6417 36.151 21.7666 35.2485 21.7666 34.1013C21.7666 32.9541 22.6417 32.0363 23.7542 32.0363Z" stroke="#606060" stroke-width="2"/>
</svg>
