<svg width="51" height="65" viewBox="0 0 51 65" fill="none" xmlns="http://www.w3.org/2000/svg">
<path d="M19.3805 54.4307H1.92725V45.4475V36.4642V27.4809H19.3805C20.6139 27.4809 20.8606 36.4642 19.3805 36.4642H1.92725V45.4475H19.3805C21.1072 45.4475 20.8606 54.4307 19.3805 54.4307Z" fill="#161616" fill-opacity="0.76"/>
<path d="M31.8814 54.4307H49.3347V45.4475V36.4642V27.4809H31.8814C30.648 27.4809 30.4013 36.4642 31.8814 36.4642H49.3347V45.4475H31.8814C30.1547 45.4475 30.4013 54.4307 31.8814 54.4307Z" fill="#161616" fill-opacity="0.76"/>
<path d="M1.92725 27.4809C8.56928 20.1558 10.2906 17.6853 9.33279 8.60903C8.9657 5.13056 11.5792 1.99951 15.077 1.99951V1.99951C16.8466 1.99951 18.4853 2.8537 19.6762 4.1626C24.3958 9.34959 27.681 8.58855 31.8068 4.09609C32.9829 2.81543 34.6042 1.99951 36.343 1.99951V1.99951C39.8706 1.99951 42.508 5.15697 42.1212 8.66339C41.125 17.6952 42.7059 20.1705 49.3347 27.4809M1.92725 27.4809V36.4642M1.92725 27.4809H19.3805C20.6139 27.4809 20.8606 36.4642 19.3805 36.4642H1.92725M1.92725 54.4307V57.4135C1.92725 58.408 2.0919 59.419 2.6162 60.2641C3.54569 61.7622 4.87785 62.5382 8.58756 62.7403H42.6743C46.3841 62.5382 47.7162 61.7622 48.6457 60.2641C49.17 59.419 49.3347 58.408 49.3347 57.4135V54.4307M1.92725 54.4307H19.3805C20.8606 54.4307 21.1072 45.4475 19.3805 45.4475H1.92725M1.92725 54.4307V45.4475M1.92725 45.4475V36.4642M49.3347 27.4809V36.4642M49.3347 27.4809H31.8814C30.648 27.4809 30.4013 36.4642 31.8814 36.4642H49.3347M49.3347 54.4307H31.8814C30.4013 54.4307 30.1547 45.4475 31.8814 45.4475H49.3347M49.3347 54.4307V45.4475M49.3347 45.4475V36.4642" stroke="#303030" stroke-width="3"/>
</svg>
