<svg width="58" height="47" viewBox="0 0 58 47" fill="none" xmlns="http://www.w3.org/2000/svg">
<path d="M58 8.95684V34.7078C57.994 37.873 56.7741 40.9144 54.5936 43.2008C52.413 45.4873 49.4392 46.8432 46.2891 46.9872C43.1391 47.1313 40.0547 46.0524 37.6761 43.9744C35.2975 41.8964 33.8072 38.979 33.5145 35.8274H24.4855C24.1928 38.979 22.7025 41.8964 20.3239 43.9744C17.9453 46.0524 14.8609 47.1313 11.7109 46.9872C8.56085 46.8432 5.58699 45.4873 3.40642 43.2008C1.22585 40.9144 0.00600119 37.873 0 34.7078V8.95684C0 6.58134 0.940107 4.30313 2.61351 2.6234C4.28691 0.943664 6.55653 0 8.92308 0C9.51471 0 10.0821 0.235917 10.5005 0.65585C10.9188 1.07578 11.1538 1.64534 11.1538 2.23921C11.1538 2.83309 10.9188 3.40264 10.5005 3.82257C10.0821 4.24251 9.51471 4.47842 8.92308 4.47842C7.7398 4.47842 6.60499 4.95025 5.76829 5.79012C4.93159 6.62999 4.46154 7.76909 4.46154 8.95684V25.2135C6.03425 23.9116 7.90537 23.0235 9.9058 22.6295C11.9062 22.2356 13.9729 22.3482 15.9191 22.9571C17.8653 23.5661 19.6297 24.6522 21.0528 26.1174C22.4759 27.5826 23.5129 29.3806 24.07 31.349H33.93C34.4871 29.3806 35.5241 27.5826 36.9472 26.1174C38.3703 24.6522 40.1347 23.5661 42.0809 22.9571C44.0271 22.3482 46.0938 22.2356 48.0942 22.6295C50.0946 23.0235 51.9657 23.9116 53.5385 25.2135V8.95684C53.5385 7.76909 53.0684 6.62999 52.2317 5.79012C51.395 4.95025 50.2602 4.47842 49.0769 4.47842C48.4853 4.47842 47.9179 4.24251 47.4995 3.82257C47.0812 3.40264 46.8462 2.83309 46.8462 2.23921C46.8462 1.64534 47.0812 1.07578 47.4995 0.65585C47.9179 0.235917 48.4853 0 49.0769 0C51.4435 0 53.7131 0.943664 55.3865 2.6234C57.0599 4.30313 58 6.58134 58 8.95684Z" fill="#303030"/>
</svg>
