<svg width="54" height="62" viewBox="0 0 54 62" fill="none" xmlns="http://www.w3.org/2000/svg">
<path d="M9.53815 40.1626V32.6264C9.53815 30.6276 8.87412 28.7108 7.69215 27.2975C6.51017 25.8841 4.90707 25.0901 3.2355 25.0901V25.0901C2.65536 25.0901 2.18506 25.5604 2.18506 26.1406V45.4736C2.18506 48.7836 5.26098 51.503 7.38448 54.0421V54.0421V54.0421C9.76262 56.8858 12.5432 60.2592 16.2502 60.2592H17.9417M24.2443 6.24956V3.53188C24.2443 2.95174 23.774 2.48145 23.1939 2.48145V2.48145C21.5223 2.48145 19.9192 3.27544 18.7372 4.68876C17.5553 6.10208 16.8912 8.01895 16.8912 10.0177V20.066M17.2484 7.5056H15.8408C14.1692 7.5056 12.5661 8.2996 11.3842 9.71291C10.2022 11.1262 9.53815 13.0431 9.53815 15.0418V41.4186M38.9505 15.0418V31.3703V10.0177V7.98901V7.98901C38.9505 3.2041 31.5974 3.2041 31.5974 7.98901V7.98901V10.0177V31.3703V15.0418M24.2443 40.1626V32.6264C24.2443 30.6276 23.5803 28.7108 22.3983 27.2975C21.2164 25.8841 19.6133 25.0901 17.9417 25.0901V25.0901C17.3615 25.0901 16.8912 25.5604 16.8912 26.1406V45.4736C16.8912 48.7836 19.9672 51.503 22.0907 54.0421V54.0421V54.0421C24.4688 56.8858 27.2494 60.2592 30.9564 60.2592H42.3915C44.8226 60.2592 47.0796 58.9978 48.3535 56.9272L50.7727 52.9951C51.4514 51.892 51.8107 50.6222 51.8107 49.3271V27.2975C51.901 25.993 50.4628 22.5316 47.354 22.3559H46.3036M31.9546 7.5056H30.547C28.8754 7.5056 27.2723 8.2996 26.0903 9.71291C24.9084 11.1262 24.2443 13.0431 24.2443 15.0418M24.2443 15.0418V31.3703M24.2443 15.0418V41.4186M38.5934 7.5056H40.001C41.6725 7.5056 43.2756 8.2996 44.4576 9.71291C45.6396 11.1262 46.3036 13.0431 46.3036 15.0418V31.3703" stroke="#606060" stroke-width="3"/>
</svg>
