<svg width="58" height="36" viewBox="0 0 58 36" fill="none" xmlns="http://www.w3.org/2000/svg">
<path d="M48.9375 17.9986C48.6302 17.9987 48.3281 18.0765 48.0594 18.2245C47.7907 18.3725 47.5643 18.5859 47.4014 18.8446C46.4553 20.3544 45.4101 21.8007 44.2726 23.174L43.9033 21.2456L40.4006 2.93814C40.2854 2.32719 40.0129 1.75627 39.6097 1.28095C39.2064 0.805632 38.6861 0.4421 38.0994 0.225741C37.5127 0.00938212 36.8796 -0.0524337 36.2617 0.0463099C35.6438 0.145053 35.0622 0.400993 34.5734 0.789217L34.544 0.811718L29 5.39758L23.456 0.811718L23.4266 0.789217C22.9381 0.401027 22.3568 0.144985 21.7393 0.0459923C21.1217 -0.0530002 20.4888 0.00842618 19.9022 0.224297C19.3156 0.440168 18.7952 0.803136 18.3917 1.2779C17.9882 1.75267 17.7152 2.32307 17.5994 2.93364L14.099 21.2343L13.7274 23.174C12.5893 21.8003 11.5441 20.3533 10.5986 18.8424C10.4355 18.584 10.2089 18.3711 9.94026 18.2235C9.67158 18.0759 9.36954 17.9985 9.0625 17.9986C6.65898 17.9986 4.35389 18.9469 2.65434 20.6348C0.954796 22.3228 0 24.6122 0 26.9993C0 29.3864 0.954796 31.6758 2.65434 33.3638C4.35389 35.0517 6.65898 36 9.0625 36H48.9375C51.341 36 53.6461 35.0517 55.3457 33.3638C57.0452 31.6758 58 29.3864 58 26.9993C58 24.6122 57.0452 22.3228 55.3457 20.6348C53.6461 18.9469 51.341 17.9986 48.9375 17.9986ZM17.3728 23.399H40.6249L41.2004 26.403C39.3582 28.1235 37.2702 29.5641 35.0039 30.6783C31.5148 32.348 29.0136 32.3997 29 32.3997C28.9252 32.3997 23.2249 32.3097 16.7973 26.4142L17.3728 23.399Z" fill="#303030"/>
</svg>
