<svg width="43" height="39" viewBox="0 0 43 39" fill="none" xmlns="http://www.w3.org/2000/svg">
<path d="M5.35896 21.3209L20.7814 37.2574C21.1192 37.6065 21.2881 37.781 21.5 37.781C21.7119 37.781 21.8808 37.6065 22.2186 37.2574L37.641 21.3209C38.7531 20.1718 39.3091 19.5973 39.7157 19.0181C41.6043 16.3278 41.8761 12.8219 40.4246 9.8727C40.1121 9.23779 39.6512 8.58442 38.7295 7.27767L37.5819 5.65056C36.9636 4.77397 36.6545 4.33568 36.4149 4.05494C32.7801 -0.203936 26.0072 0.492455 23.3152 5.40187C23.1377 5.72549 22.9242 6.21752 22.4972 7.20158L22.4972 7.20172C22.4305 7.35531 22.3972 7.43212 22.3725 7.47626C21.9907 8.15811 21.0093 8.15811 20.6275 7.47626C20.6028 7.4321 20.5694 7.35526 20.5028 7.20158L20.5027 7.20149C20.0758 6.21749 19.8623 5.72548 19.6848 5.40187C16.9928 0.492455 10.2199 -0.203936 6.58512 4.05494C6.34553 4.33568 6.03639 4.77396 5.41813 5.65052L5.4181 5.65056L4.27045 7.27767C3.34876 8.58442 2.88792 9.23779 2.57544 9.8727C1.12394 12.8219 1.39568 16.3278 3.28431 19.0181C3.69089 19.5972 4.24691 20.1718 5.35894 21.3209L5.35896 21.3209Z" fill="#D85454" stroke="#D85454" stroke-width="2"/>
</svg>
