<svg width="59" height="66" viewBox="0 0 59 66" fill="none" xmlns="http://www.w3.org/2000/svg">
<path d="M2.22933 29.2399C2.07226 16.8393 4.31601 11.0616 18.3743 8.03354C19.7426 7.73882 20.756 6.54735 20.756 5.14771V5.14771C20.756 3.5522 22.0494 2.25879 23.6449 2.25879H29.6293M2.22933 29.2399V52.6011C2.22933 55.4553 4.5431 57.769 7.39729 57.769H9.57963C11.2285 57.769 12.5652 59.1058 12.5652 60.7547V60.7547C12.5652 62.4036 13.9019 63.7403 15.5509 63.7403H40.9171C44.2149 63.7403 46.8883 61.0669 46.8883 57.769V57.769M2.22933 29.2399H8.86013M46.6934 57.769H50.0293C53.8953 57.769 57.0293 54.635 57.0293 50.769V29.2399C57.1864 16.8393 54.9427 11.0616 40.8844 8.03354C39.5161 7.73882 38.5027 6.54735 38.5027 5.14771V5.14771C38.5027 3.5522 37.2093 2.25879 35.6138 2.25879H29.6293M46.6934 57.769V57.769C46.6934 61.0669 44.02 63.7403 40.7222 63.7403H29.5319M46.6934 57.769V22.6052M12.3704 22.6052V57.769V57.769C12.3704 61.0669 15.0438 63.7403 18.3416 63.7403H29.5319M29.5319 63.7403L29.6293 2.25879" stroke="#606060" stroke-width="3"/>
</svg>
