<svg width="58" height="66" viewBox="0 0 58 66" fill="none" xmlns="http://www.w3.org/2000/svg">
<path d="M53.0568 5.27273H45.9222L41.4107 0.771137C41.1657 0.526392 40.8748 0.332319 40.5548 0.200005C40.2347 0.0676908 39.8918 -0.000271508 39.5455 8.15159e-07H18.4545C18.1082 -0.000271508 17.7653 0.0676908 17.4452 0.200005C17.1252 0.332319 16.8343 0.526392 16.5893 0.771137L12.0778 5.27273H4.94318C3.63217 5.27273 2.37485 5.79353 1.44782 6.72055C0.520798 7.64758 0 8.9049 0 10.2159V60.9659C0 62.2769 0.520798 63.5342 1.44782 64.4613C2.37485 65.3883 3.63217 65.9091 4.94318 65.9091H25.0455C25.3951 65.9091 25.7303 65.7702 25.9776 65.523C26.2248 65.2758 26.3636 64.9405 26.3636 64.5909V26.4526C26.3536 25.7713 26.6019 25.1115 27.0586 24.6059C27.5153 24.1003 28.1466 23.7863 28.8253 23.7273C29.186 23.7033 29.5477 23.7538 29.888 23.8755C30.2283 23.9972 30.5399 24.1876 30.8035 24.4349C31.0671 24.6821 31.2771 24.9809 31.4204 25.3127C31.5636 25.6445 31.6372 26.0022 31.6364 26.3636V64.5909C31.6364 64.9405 31.7752 65.2758 32.0224 65.523C32.2697 65.7702 32.6049 65.9091 32.9545 65.9091H53.0568C54.3678 65.9091 55.6251 65.3883 56.5522 64.4613C57.4792 63.5342 58 62.2769 58 60.9659V10.2159C58 8.9049 57.4792 7.64758 56.5522 6.72055C55.6251 5.79353 54.3678 5.27273 53.0568 5.27273ZM15.337 27.3786C15.1443 27.5371 14.9105 27.6376 14.663 27.6684C14.4154 27.6992 14.1641 27.6592 13.9384 27.5529C13.7126 27.4466 13.5217 27.2784 13.3878 27.0679C13.2539 26.8573 13.1824 26.6131 13.1818 26.3636V11.6363L18.2041 6.61398L25.9385 18.2173L15.337 27.3786ZM44.8182 26.3636C44.8188 26.6145 44.7477 26.8603 44.6135 27.0722C44.4792 27.2841 44.2873 27.4533 44.0602 27.5599C43.8371 27.6675 43.5878 27.7088 43.3419 27.679C43.096 27.6493 42.8638 27.5496 42.6728 27.3918L32.0615 18.2239L39.7959 6.62057L44.8182 11.6363V26.3636Z" fill="#606060"/>
</svg>
