<svg width="58" height="46" viewBox="0 0 58 46" fill="none" xmlns="http://www.w3.org/2000/svg">
<path d="M43.5 18.6432H22.8557C22.3211 18.6503 21.8037 18.4549 21.4074 18.096C21.0111 17.7372 20.7653 17.2416 20.7196 16.709C20.7008 16.4261 20.7403 16.1423 20.8356 15.8753C20.9309 15.6083 21.0801 15.3636 21.2738 15.1566C21.4675 14.9495 21.7016 14.7845 21.9617 14.6716C22.2218 14.5587 22.5023 14.5004 22.7858 14.5003H34.1786C34.4533 14.5003 34.7168 14.3912 34.911 14.197C35.1052 14.0027 35.2143 13.7393 35.2143 13.4646V11.3932C35.2143 11.1185 35.1052 10.855 34.911 10.6608C34.7168 10.4666 34.4533 10.3575 34.1786 10.3575H22.8557C22.3203 10.366 21.8015 10.1711 21.4041 9.81213C21.0067 9.45317 20.7602 8.95683 20.7144 8.42327C20.6956 8.13993 20.7352 7.85574 20.8309 7.58836C20.9265 7.32099 21.0761 7.07613 21.2704 6.86901C21.4646 6.66188 21.6994 6.49691 21.9601 6.38433C22.2208 6.27176 22.5018 6.21399 22.7858 6.21461H34.1786C34.4533 6.21461 34.7168 6.10549 34.911 5.91126C35.1052 5.71703 35.2143 5.45359 35.2143 5.1789V4.14319C35.2143 3.04444 34.7779 1.99069 34.0009 1.21376C33.224 0.436823 32.1702 0.000345863 31.0715 0.000345863H2.12854C1.65509 -0.00818264 1.19228 0.141227 0.81319 0.424987C0.457932 0.696637 0.200131 1.07596 0.0783196 1.50627C-0.0434915 1.93658 -0.0227693 2.39475 0.137388 2.8123C3.00113 10.2798 2.4056 24.4872 0.080424 32.5709C0.0270645 32.7569 4.59141e-05 32.9496 0.000156491 33.1431V41.4288C0.000156491 42.5276 0.436633 43.5813 1.21357 44.3582C1.9905 45.1352 3.04425 45.5717 4.143 45.5717H10.9036C11.5472 45.5718 12.1819 45.4219 12.7575 45.1341L16.0252 43.5002H20.225L23.4927 45.1341C24.0683 45.4219 24.703 45.5718 25.3466 45.5717H32.6535C33.2971 45.5718 33.9319 45.4219 34.5075 45.1341L37.7751 43.5002H41.975L45.2426 45.1341C45.8182 45.4219 46.453 45.5718 47.0965 45.5717H53.8572C54.9559 45.5717 56.0097 45.1352 56.7866 44.3582C57.5635 43.5813 58 42.5276 58 41.4288V33.1431C58 29.2975 56.4723 25.6094 53.7531 22.8901C51.0338 20.1708 47.3457 18.6432 43.5 18.6432ZM53.8572 41.4288H47.0965L43.8289 39.795C43.2533 39.5071 42.6185 39.3573 41.975 39.3574H37.7751C37.1316 39.3573 36.4968 39.5071 35.9212 39.795L32.6535 41.4288H25.3466L22.0789 39.795C21.5033 39.5071 20.8686 39.3573 20.225 39.3574H16.0252C15.3816 39.3573 14.7469 39.5071 14.1713 39.795L10.9036 41.4288H4.143V35.2145H53.8572V41.4288Z" fill="#303030"/>
</svg>
