<svg width="58" height="63" viewBox="0 0 58 63" fill="none" xmlns="http://www.w3.org/2000/svg">
<path d="M6.47719 5.8904L6.6826 4.229C6.82979 3.06075 7.39839 1.98642 8.28164 1.20774C9.16489 0.429057 10.302 -0.000403887 11.4795 2.8502e-07H46.5198C47.6973 -0.000403887 48.8344 0.429057 49.7177 1.20774C50.6009 1.98642 51.1695 3.06075 51.3167 4.229L51.5221 5.88738C51.5436 6.05825 51.5284 6.23176 51.4774 6.39626C51.4264 6.56077 51.3408 6.71246 51.2264 6.84119C51.112 6.96991 50.9713 7.07269 50.814 7.14263C50.6566 7.21257 50.486 7.24805 50.3138 7.2467H7.67642C7.50525 7.2467 7.33603 7.21034 7.17997 7.14001C7.02391 7.06969 6.88457 6.96701 6.77119 6.83877C6.6578 6.71054 6.57296 6.55967 6.52228 6.39618C6.47159 6.23268 6.45623 6.06028 6.47719 5.8904ZM41.3846 12.0829C41.9233 14.1571 43.1349 15.994 44.8294 17.3059C46.524 18.6178 48.6058 19.3306 50.7488 19.3326H51.8332C52.0055 19.3339 52.176 19.2985 52.3334 19.2285C52.4908 19.1586 52.6314 19.0558 52.7458 18.9271C52.8602 18.7983 52.9458 18.6466 52.9968 18.4821C53.0478 18.3176 53.0631 18.1441 53.0415 17.9733L52.4374 13.1401C52.4004 12.8465 52.2569 12.5767 52.0342 12.3818C51.8115 12.1869 51.525 12.0805 51.2291 12.0829H41.3846ZM6.16606 19.3326H7.2505C9.39352 19.3306 11.4753 18.6178 13.1699 17.3059C14.8644 15.994 16.076 14.1571 16.6147 12.0829H6.7702C6.47428 12.0805 6.18779 12.1869 5.96507 12.3818C5.74235 12.5767 5.5989 12.8465 5.56192 13.1401L4.95778 17.9733C4.93624 18.1441 4.95149 18.3176 5.00249 18.4821C5.05349 18.6466 5.13907 18.7983 5.2535 18.9271C5.36792 19.0558 5.50854 19.1586 5.66593 19.2285C5.82332 19.2985 5.99384 19.3339 6.16606 19.3326ZM57.9623 57.3936L53.9387 25.223C53.9017 24.9294 53.7582 24.6595 53.5355 24.4646C53.3128 24.2698 53.0263 24.1634 52.7304 24.1657H50.7488C47.3239 24.1609 44.0109 22.9456 41.3953 20.7346C38.7797 18.5236 37.0298 15.4592 36.4548 12.0829H31.4162V24.0842C31.4239 24.7076 31.1956 25.3109 30.7771 25.7731C30.3586 26.2353 29.7809 26.5222 29.1597 26.5763C28.8292 26.5982 28.4977 26.552 28.1857 26.4404C27.8738 26.3288 27.5881 26.1543 27.3465 25.9277C27.1049 25.701 26.9124 25.4271 26.7811 25.123C26.6497 24.8189 26.5824 24.491 26.5831 24.1597V12.0829H21.5445C20.9696 15.4592 19.2196 18.5236 16.604 20.7346C13.9884 22.9456 10.6754 24.1609 7.2505 24.1657H5.25985C4.96392 24.1634 4.67743 24.2698 4.45471 24.4646C4.232 24.6595 4.08854 24.9294 4.05156 25.223L0.0370287 57.3936C-0.0715687 58.2659 0.0597765 59.1513 0.416926 59.9544C0.774076 60.7576 1.34351 61.4482 2.06393 61.9519C2.91305 62.5352 3.92158 62.8422 4.95173 62.8309H17.1252C18.2001 62.8311 19.2443 62.473 20.0928 61.8132C20.9413 61.1534 21.5457 60.2296 21.8103 59.1879L28.9997 31.3973L36.1859 59.1698C36.4473 60.2154 37.0506 61.1436 37.9001 61.807C38.7495 62.4703 39.7963 62.8307 40.8741 62.8309H53.0476C54.0771 62.8444 55.0857 62.5395 55.9354 61.9579C56.6568 61.4538 57.2268 60.7622 57.584 59.9578C57.9412 59.1535 58.072 58.2668 57.9623 57.3936Z" fill="#606060"/>
</svg>
