<svg width="48" height="67" viewBox="0 0 48 67" fill="none" xmlns="http://www.w3.org/2000/svg">
<path d="M38.1896 14.2166L36.3177 3.93326C36.1174 2.83001 35.5349 1.83189 34.672 1.11305C33.809 0.394216 32.7203 0.000289124 31.5958 0H16.4042C15.2797 0.000289124 14.191 0.394216 13.328 1.11305C12.4651 1.83189 11.8826 2.83001 11.6823 3.93326L9.8104 14.2166C6.7701 16.4358 4.29737 19.3384 2.59284 22.6888C0.888307 26.0392 0 29.7432 0 33.5C0 37.2568 0.888307 40.9608 2.59284 44.3112C4.29737 47.6616 6.7701 50.5642 9.8104 52.7834L11.6823 63.0667C11.8826 64.17 12.4651 65.1681 13.328 65.8869C14.191 66.6058 15.2797 66.9997 16.4042 67H31.5958C32.7203 66.9997 33.809 66.6058 34.672 65.8869C35.5349 65.1681 36.1174 64.17 36.3177 63.0667L38.1896 52.7834C41.2299 50.5642 43.7026 47.6616 45.4072 44.3112C47.1117 40.9608 48 37.2568 48 33.5C48 29.7432 47.1117 26.0392 45.4072 22.6888C43.7026 19.3384 41.2299 16.4358 38.1896 14.2166ZM16.4042 4.78571H31.5958L32.7688 11.2315C27.1337 9.01816 20.8663 9.01816 15.2312 11.2315L16.4042 4.78571ZM31.5958 62.2143H16.4042L15.2312 55.7685C20.8663 57.9818 27.1337 57.9818 32.7688 55.7685L31.5958 62.2143ZM35.9997 35.8929H24C23.3635 35.8929 22.7531 35.6408 22.303 35.192C21.8529 34.7433 21.6001 34.1346 21.6001 33.5V21.5357C21.6001 20.9011 21.8529 20.2925 22.303 19.8437C22.7531 19.395 23.3635 19.1429 24 19.1429C24.6365 19.1429 25.2469 19.395 25.697 19.8437C26.1471 20.2925 26.3999 20.9011 26.3999 21.5357V31.1071H35.9997C36.6362 31.1071 37.2466 31.3592 37.6967 31.808C38.1468 32.2567 38.3996 32.8654 38.3996 33.5C38.3996 34.1346 38.1468 34.7433 37.6967 35.192C37.2466 35.6408 36.6362 35.8929 35.9997 35.8929Z" fill="#303030"/>
</svg>
