<svg width="33" height="45" viewBox="0 0 33 45" fill="none" xmlns="http://www.w3.org/2000/svg">
<path fill-rule="evenodd" clip-rule="evenodd" d="M16.5 45C25.6127 45 33 37.7473 33 28.8006C33 16.4975 20.2329 3.27681 17.1595 0.272538C16.7878 -0.090847 16.2122 -0.0908455 15.8405 0.27254C12.7671 3.27681 0 16.4975 0 28.8006C0 37.7473 7.3873 45 16.5 45ZM6.84794 31.8178C6.80929 31.5443 6.55631 31.354 6.28288 31.3927C6.00946 31.4313 5.81913 31.6843 5.85778 31.9577C6.16022 34.0975 7.09882 36.0764 8.53474 37.6018C9.97068 39.1271 11.8277 40.1179 13.8311 40.4276C14.104 40.4698 14.3595 40.2828 14.4016 40.0099C14.4438 39.737 14.2568 39.4816 13.9839 39.4394C12.2084 39.1649 10.5516 38.2853 9.26287 36.9163C7.97322 35.5463 7.12245 33.7599 6.84794 31.8178Z" fill="#4368D9"/>
</svg>
